<?xml version="1.0" standalone="no"?>
<!DOCTYPE svg PUBLIC "-//W3C//DTD SVG 20010904//EN"
 "http://www.w3.org/TR/2001/REC-SVG-20010904/DTD/svg10.dtd">
<svg version="1.0" xmlns="http://www.w3.org/2000/svg"
 width="310.000000pt" height="310.000000pt" viewBox="0 0 310.000000 310.000000"
 preserveAspectRatio="xMidYMid meet">
<metadata>
Created by potrace 1.11, written by Peter Selinger 2001-2013
</metadata>
<g transform="translate(0.000000,310.000000) scale(0.100000,-0.100000)"
fill="#000000" stroke="none">
<path d="M2701 2541 c-6 -27 -22 -75 -37 -107 -14 -33 -28 -70 -30 -82 -19
-99 -90 -174 -394 -419 -96 -77 -185 -149 -196 -159 -20 -18 -57 -47 -123
-100 -25 -20 -65 -44 -74 -44 -2 0 -3 32 -2 70 2 59 -3 85 -32 163 -45 121
-60 149 -101 197 -39 46 -75 68 -123 73 -86 9 -103 46 -69 147 17 50 21 79 16
107 -4 21 -8 44 -8 51 -1 8 -14 26 -29 41 -36 36 -118 42 -177 12 -49 -25
-109 -91 -92 -101 6 -4 11 -20 9 -36 -2 -16 4 -47 11 -69 8 -22 14 -43 15 -47
0 -5 12 -20 26 -35 38 -41 40 -56 17 -115 -11 -29 -26 -69 -34 -88 -21 -56
-17 -91 22 -155 24 -39 33 -64 28 -73 -5 -7 -12 -12 -15 -10 -7 4 -73 -46
-118 -89 -40 -39 -53 -41 -70 -10 -6 12 -34 34 -60 49 -40 22 -58 26 -105 23
-59 -3 -103 -24 -113 -53 -4 -9 -17 -30 -31 -46 -26 -32 -41 -66 -48 -106 -8
-43 -12 -48 -46 -55 -18 -4 -46 -11 -63 -15 -43 -13 -146 -39 -170 -43 -122
-23 -197 -50 -234 -86 -38 -37 -88 -111 -75 -111 4 0 29 14 56 31 54 35 68 34
40 -2 -10 -13 -22 -32 -25 -42 -10 -28 22 -6 87 57 45 45 63 56 98 60 24 3 70
9 103 13 33 4 65 8 70 9 6 0 35 5 65 9 110 17 125 13 162 -41 20 -30 28 -56
32 -109 3 -38 8 -83 12 -100 10 -44 4 -130 -12 -188 -3 -10 1 -20 9 -23 8 -3
18 -15 21 -27 4 -17 8 -19 18 -9 16 16 29 15 26 0 -2 -8 5 -12 15 -10 16 3 17
-9 13 -180 -2 -101 -5 -191 -5 -201 -1 -10 -26 -43 -56 -73 -30 -31 -55 -62
-55 -70 0 -20 52 -18 124 5 50 15 63 16 84 5 33 -17 44 -11 69 39 20 37 23 63
28 222 6 189 10 252 20 323 6 41 8 43 31 38 l25 -7 -3 66 -4 66 71 35 c39 19
78 37 86 38 8 2 21 6 29 9 56 22 155 46 162 39 5 -5 3 -32 -3 -61 -14 -67 -5
-76 20 -20 19 43 20 43 29 18 19 -49 5 -154 -37 -277 -23 -65 -41 -121 -41
-125 0 -18 17 -4 29 25 23 50 59 100 66 89 3 -6 3 -23 1 -38 -9 -50 19 -1 43
77 20 63 24 69 42 60 10 -6 19 -16 19 -23 1 -7 8 0 16 16 17 32 22 33 39 10
11 -15 13 -13 19 14 5 23 15 34 38 42 23 8 29 15 23 28 -15 38 -18 83 -5 83 6
0 42 -28 78 -63 102 -97 126 -117 145 -123 15 -5 13 -14 -23 -82 -23 -42 -58
-118 -80 -168 -21 -51 -56 -117 -77 -148 -36 -53 -39 -62 -35 -114 2 -31 5
-66 6 -77 2 -11 4 -26 5 -34 0 -8 4 -11 9 -7 8 9 9 14 11 56 2 45 17 37 47
-25 29 -58 41 -66 113 -70 41 -2 71 4 71 14 0 4 -15 23 -34 42 -63 63 -83 103
-80 153 3 49 32 113 60 137 16 13 17 11 10 -31 -14 -77 -15 -84 -25 -125 -8
-31 -7 -43 5 -56 7 -8 14 -21 14 -27 0 -13 31 -22 75 -21 17 1 50 -6 74 -15
48 -18 122 -18 128 1 2 6 -14 28 -36 48 -21 20 -46 50 -54 66 -17 36 -14 132
9 244 9 44 18 94 21 110 9 64 26 112 54 155 23 34 28 51 23 75 -13 62 -70 142
-185 255 -64 64 -120 126 -123 138 -14 41 125 271 228 381 130 137 369 369
393 382 15 8 43 31 62 53 19 21 45 42 56 46 21 8 31 40 12 40 -5 0 -27 -10
-48 -22 -37 -20 -41 -21 -56 -6 -15 16 -15 20 1 62 10 25 21 46 25 46 8 0 13
30 13 75 1 35 -27 105 -41 105 -5 0 -14 -22 -20 -49z m-1517 -1198 c-15 -11
-20 -11 -27 3 -12 21 12 37 31 21 12 -9 11 -13 -4 -24z"/>
</g>
</svg>
